<svg width="20" height="20" viewBox="0 0 20 20" fill="none" xmlns="http://www.w3.org/2000/svg">
<path fill-rule="evenodd" clip-rule="evenodd" d="M10 20C15.5228 20 20 15.5228 20 10C20 4.47715 15.5228 0 10 0C4.47715 0 0 4.47715 0 10C0 15.5228 4.47715 20 10 20Z" fill="#007AFF"/>
<path d="M9.88338 4.00673L10 4C10.5128 4 10.9355 4.38604 10.9933 4.88338L11 5V9H15C15.5128 9 15.9355 9.38604 15.9933 9.88338L16 10C16 10.5128 15.614 10.9355 15.1166 10.9933L15 11H11V15C11 15.5128 10.614 15.9355 10.1166 15.9933L10 16C9.48716 16 9.06449 15.614 9.00673 15.1166L9 15V11H5C4.48716 11 4.06449 10.614 4.00673 10.1166L4 10C4 9.48716 4.38604 9.06449 4.88338 9.00673L5 9H9V5C9 4.48716 9.38604 4.06449 9.88338 4.00673L10 4L9.88338 4.00673Z" fill="white"/>
</svg>
